<?xml version="1.0" encoding="UTF-8" standalone="no"?>
<svg
   xmlns:dc="http://purl.org/dc/elements/1.1/"
   xmlns:cc="http://creativecommons.org/ns#"
   xmlns:rdf="http://www.w3.org/1999/02/22-rdf-syntax-ns#"
   xmlns:svg="http://www.w3.org/2000/svg"
   xmlns="http://www.w3.org/2000/svg"
   xmlns:sodipodi="http://sodipodi.sourceforge.net/DTD/sodipodi-0.dtd"
   xmlns:inkscape="http://www.inkscape.org/namespaces/inkscape"
   version="1.1"
   id="svg2"
   xml:space="preserve"
   width="513.40002"
   height="221.01334"
   viewBox="0 0 513.40002 221.01334"
   sodipodi:docname="si_logo.eps"><metadata
     id="metadata8"><rdf:RDF><cc:Work
         rdf:about=""><dc:format>image/svg+xml</dc:format><dc:type
           rdf:resource="http://purl.org/dc/dcmitype/StillImage" /></cc:Work></rdf:RDF></metadata><defs
     id="defs6" /><sodipodi:namedview
     pagecolor="#ffffff"
     bordercolor="#666666"
     borderopacity="1"
     objecttolerance="10"
     gridtolerance="10"
     guidetolerance="10"
     inkscape:pageopacity="0"
     inkscape:pageshadow="2"
     inkscape:window-width="640"
     inkscape:window-height="480"
     id="namedview4" /><g
     id="g10"
     inkscape:groupmode="layer"
     inkscape:label="ink_ext_XXXXXX"
     transform="matrix(1.3333333,0,0,-1.3333333,0,221.01333)"><g
       id="g12"
       transform="scale(0.1)"><path
         d="M 196.582,774.117 570.207,237.871 H 719.352 L 370.563,774.336 196.582,774.117"
         style="fill:#185c33;fill-opacity:1;fill-rule:nonzero;stroke:none"
         id="path14" /><path
         d="M 435.113,774.703 758.629,237.871 H 906.313 L 797.309,444.16 988.359,239.043 h 105.501 l -234.43,534.48 -180.512,1.18 114.871,-241.488 -210.98,241.488 H 435.113"
         style="fill:#185c33;fill-opacity:1;fill-rule:nonzero;stroke:none"
         id="path16" /><path
         d="m 894.586,773.523 298.894,-534.48 h 247.33 l -49.23,535.66 h -198.1 l 77.38,-395.015 -194.59,393.835 H 894.586"
         style="fill:#185c33;fill-opacity:1;fill-rule:nonzero;stroke:none"
         id="path18" /><path
         d="m 1733.93,239.043 h 130.03 l -109,535.66 -269.6,-1.18 21.1,-534.48 h 142.19 l -0.96,75.195 h 65.97 z m -87.14,144.473 -2.4,187.808 50.59,-187.808 z"
         style="fill:#185c33;fill-opacity:1;fill-rule:nonzero;stroke:none"
         id="path20" /><path
         d="m 2199.18,773.523 h -309.43 l 9.38,-534.48 h 262.55 l 82.05,48.027 58.61,361.039 v 32.836 z M 2092.77,297.832 h -56.33 l 17.61,376.781 h 63.4 l -24.68,-376.781"
         style="fill:#185c33;fill-opacity:1;fill-rule:nonzero;stroke:none"
         id="path22" /><path
         d="m 2731.37,670.375 33.96,103.148 h -384.47 l -109,-534.48 h 324.69 l 19.95,63.262 h -162.95 l 36.04,151.925 149.15,-3.039 31.66,86.731 h -160.95 l 32.01,134.808 189.91,-2.355"
         style="fill:#185c33;fill-opacity:1;fill-rule:nonzero;stroke:none"
         id="path24" /><path
         d="m 3143.96,773.523 -324.68,1.18 -199.29,-538.023 150.15,0.488 78.24,179.199 h 54.5 l -79.87,-178.984 148.62,0.488 92.6,172.285 -52.73,55.098 97.28,43.359 94.93,162.942 V 690.32 Z M 2941.52,502.949 h -55.35 l 74.02,169.555 h 56.98 l -75.65,-169.555"
         style="fill:#185c33;fill-opacity:1;fill-rule:nonzero;stroke:none"
         id="path26" /><path
         d="m 3624.53,774.703 h -215.69 l -142.99,-82.047 -107.84,-175.82 v -42.227 l 43.35,-58.613 h 112.55 l -76.18,-105.488 h -28.16 l 31.66,42.226 v 23.438 H 3091.2 l -46.87,-71.504 v -28.125 l 32.79,-37.5 187.55,-2.363 111.38,59.785 106.64,135.976 v 26.946 l -35.18,50.41 h -116.02 l 94.94,161.758 49.23,1.175 -71.49,-117.218 h 168.78 l 85.56,118.375 v 31.656 l -33.98,69.16"
         style="fill:#185c33;fill-opacity:1;fill-rule:nonzero;stroke:none"
         id="path28" /><path
         d="M 196.582,774.117 570.207,237.871 H 719.352 L 370.563,774.336 196.582,774.117"
         style="fill:#3e6c7e;fill-opacity:1;fill-rule:nonzero;stroke:none"
         id="path30" /><path
         d="M 196.582,774.117 570.207,237.871 H 719.352 L 370.563,774.336 Z"
         style="fill:none;stroke:#231f20;stroke-width:10;stroke-linecap:butt;stroke-linejoin:miter;stroke-miterlimit:4;stroke-dasharray:none;stroke-opacity:1"
         id="path32" /><path
         d="M 435.113,774.703 758.629,237.871 H 906.313 L 797.309,444.16 988.359,239.043 h 105.501 l -234.43,534.48 -180.512,1.18 114.871,-241.488 -210.98,241.488 H 435.113"
         style="fill:#3e6c7e;fill-opacity:1;fill-rule:nonzero;stroke:none"
         id="path34" /><path
         d="M 435.113,774.703 758.629,237.871 H 906.313 L 797.309,444.16 988.359,239.043 h 105.501 l -234.43,534.48 -180.512,1.18 114.871,-241.488 -210.98,241.488 z"
         style="fill:none;stroke:#231f20;stroke-width:10;stroke-linecap:butt;stroke-linejoin:miter;stroke-miterlimit:4;stroke-dasharray:none;stroke-opacity:1"
         id="path36" /><path
         d="m 894.586,773.523 298.894,-534.48 h 247.33 l -49.23,535.66 h -198.1 l 77.38,-395.015 -194.59,393.835 H 894.586"
         style="fill:#3e6c7e;fill-opacity:1;fill-rule:nonzero;stroke:none"
         id="path38" /><path
         d="m 894.586,773.523 298.894,-534.48 h 247.33 l -49.23,535.66 h -198.1 l 77.38,-395.015 -194.59,393.835 z"
         style="fill:none;stroke:#231f20;stroke-width:10;stroke-linecap:butt;stroke-linejoin:miter;stroke-miterlimit:4;stroke-dasharray:none;stroke-opacity:1"
         id="path40" /><path
         d="m 1733.93,239.043 h 130.03 l -109,535.66 -269.6,-1.18 21.1,-534.48 h 142.19 l -0.96,75.195 h 65.97 z m -87.14,144.473 -2.4,187.808 50.59,-187.808 z"
         style="fill:#3e6c7e;fill-opacity:1;fill-rule:nonzero;stroke:none"
         id="path42" /><path
         d="m 1733.93,239.043 h 130.03 l -109,535.66 -269.6,-1.18 21.1,-534.48 h 142.19 l -0.96,75.195 h 65.97 z m -87.14,144.473 -2.4,187.808 50.59,-187.808 z"
         style="fill:none;stroke:#231f20;stroke-width:10;stroke-linecap:butt;stroke-linejoin:miter;stroke-miterlimit:4;stroke-dasharray:none;stroke-opacity:1"
         id="path44" /><path
         d="m 2199.18,773.523 h -309.43 l 9.38,-534.48 h 262.55 l 82.05,48.027 58.61,361.039 v 32.836 z M 2092.77,297.832 h -56.33 l 17.61,376.781 h 63.4 l -24.68,-376.781"
         style="fill:#3e6c7e;fill-opacity:1;fill-rule:nonzero;stroke:none"
         id="path46" /><path
         d="m 2199.18,773.523 h -309.43 l 9.38,-534.48 h 262.55 l 82.05,48.027 58.61,361.039 v 32.836 z M 2092.77,297.832 h -56.33 l 17.61,376.781 h 63.4 z"
         style="fill:none;stroke:#231f20;stroke-width:10;stroke-linecap:butt;stroke-linejoin:miter;stroke-miterlimit:4;stroke-dasharray:none;stroke-opacity:1"
         id="path48" /><path
         d="m 2731.37,670.375 33.96,103.148 h -384.47 l -109,-534.48 h 324.69 l 19.95,63.262 h -162.95 l 36.04,151.925 149.15,-3.039 31.66,86.731 h -160.95 l 32.01,134.808 189.91,-2.355"
         style="fill:#3e6c7e;fill-opacity:1;fill-rule:nonzero;stroke:none"
         id="path50" /><path
         d="m 2731.37,670.375 33.96,103.148 h -384.47 l -109,-534.48 h 324.69 l 19.95,63.262 h -162.95 l 36.04,151.925 149.15,-3.039 31.66,86.731 h -160.95 l 32.01,134.808 z"
         style="fill:none;stroke:#231f20;stroke-width:10;stroke-linecap:butt;stroke-linejoin:miter;stroke-miterlimit:4;stroke-dasharray:none;stroke-opacity:1"
         id="path52" /><path
         d="m 3143.96,773.523 -324.68,1.18 -199.29,-538.023 150.15,0.488 78.24,179.199 h 54.5 l -79.87,-178.984 148.62,0.488 92.6,172.285 -52.73,55.098 97.28,43.359 94.93,162.942 V 690.32 Z M 2941.52,502.949 h -55.35 l 74.02,169.555 h 56.98 l -75.65,-169.555"
         style="fill:#3e6c7e;fill-opacity:1;fill-rule:nonzero;stroke:none"
         id="path54" /><path
         d="m 3143.96,773.523 -324.68,1.18 -199.29,-538.023 150.15,0.488 78.24,179.199 h 54.5 l -79.87,-178.984 148.62,0.488 92.6,172.285 -52.73,55.098 97.28,43.359 94.93,162.942 V 690.32 Z M 2941.52,502.949 h -55.35 l 74.02,169.555 h 56.98 z"
         style="fill:none;stroke:#231f20;stroke-width:10;stroke-linecap:butt;stroke-linejoin:miter;stroke-miterlimit:4;stroke-dasharray:none;stroke-opacity:1"
         id="path56" /><path
         d="m 3624.53,774.703 h -215.69 l -142.99,-82.047 -107.84,-175.82 v -42.227 l 43.35,-58.613 h 112.55 l -76.18,-105.488 h -28.16 l 31.66,42.226 v 23.438 H 3091.2 l -46.87,-71.504 v -28.125 l 32.79,-37.5 187.55,-2.363 111.38,59.785 106.64,135.976 v 26.946 l -35.18,50.41 h -116.02 l 94.94,161.758 49.23,1.175 -71.49,-117.218 h 168.78 l 85.56,118.375 v 31.656 l -33.98,69.16"
         style="fill:#3e6c7e;fill-opacity:1;fill-rule:nonzero;stroke:none"
         id="path58" /><path
         d="m 3624.53,774.703 h -215.69 l -142.99,-82.047 -107.84,-175.82 v -42.227 l 43.35,-58.613 h 112.55 l -76.18,-105.488 h -28.16 l 31.66,42.226 v 23.438 H 3091.2 l -46.87,-71.504 v -28.125 l 32.79,-37.5 187.55,-2.363 111.38,59.785 106.64,135.976 v 26.946 l -35.18,50.41 h -116.02 l 94.94,161.758 49.23,1.175 -71.49,-117.218 h 168.78 l 85.56,118.375 v 31.656 z"
         style="fill:none;stroke:#231f20;stroke-width:10;stroke-linecap:butt;stroke-linejoin:miter;stroke-miterlimit:4;stroke-dasharray:none;stroke-opacity:1"
         id="path60" /><path
         d="M 105.48,684.336 498.766,119.863 h 156.996 l -367.157,564.7 -183.125,-0.227"
         style="fill:#4d2f90;fill-opacity:1;fill-rule:nonzero;stroke:none"
         id="path62" /><path
         d="M 356.559,684.965 697.102,119.863 H 852.559 L 737.816,337.012 938.926,121.094 H 1049.97 L 803.203,683.707 613.199,684.965 734.117,430.773 512.027,684.965 H 356.559"
         style="fill:#4d2f90;fill-opacity:1;fill-rule:nonzero;stroke:none"
         id="path64" /><path
         d="M 840.219,683.707 1154.85,121.094 h 260.34 l -51.81,563.871 H 1154.85 L 1236.29,269.16 1031.46,683.707 H 840.219"
         style="fill:#4d2f90;fill-opacity:1;fill-rule:nonzero;stroke:none"
         id="path66" /><path
         d="m 1723.73,121.094 h 136.88 l -114.75,563.871 -283.78,-1.258 22.21,-562.613 h 149.67 l -1.01,79.179 h 69.44 z m -91.72,152.07 -2.53,197.703 53.26,-197.703 z"
         style="fill:#4d2f90;fill-opacity:1;fill-rule:nonzero;stroke:none"
         id="path68" /><path
         d="m 2213.48,683.707 h -325.71 l 9.86,-562.613 H 2174 l 86.37,50.566 61.69,380.039 v 34.563 z m -112,-500.719 h -59.3 l 18.52,396.614 h 66.73 l -25.95,-396.614"
         style="fill:#4d2f90;fill-opacity:1;fill-rule:nonzero;stroke:none"
         id="path70" /><path
         d="m 2773.65,575.137 35.78,108.57 H 2404.72 L 2289.98,121.094 h 341.78 l 20.99,66.621 h -171.52 l 37.95,159.902 156.98,-3.222 33.32,91.328 h -169.4 l 33.68,141.89 199.89,-2.476"
         style="fill:#4d2f90;fill-opacity:1;fill-rule:nonzero;stroke:none"
         id="path72" /><path
         d="m 3207.97,683.707 -341.78,1.258 -209.75,-566.352 158.04,0.528 82.36,188.613 h 57.38 l -84.09,-188.399 156.46,0.508 97.47,181.348 -55.52,58.008 102.42,45.664 99.92,171.496 v 19.738 z M 2994.89,398.906 h -58.26 l 77.9,178.461 h 59.99 l -79.63,-178.461"
         style="fill:#4d2f90;fill-opacity:1;fill-rule:nonzero;stroke:none"
         id="path74" /><path
         d="m 3713.85,684.965 h -227.04 l -150.54,-86.367 -113.5,-185.082 v -44.434 l 45.64,-61.699 h 118.47 l -80.2,-111.035 h -29.63 l 33.32,44.433 v 24.688 h -157.92 l -49.35,-75.293 v -29.59 l 34.54,-39.492 197.41,-2.481 117.22,62.93 112.25,143.125 v 28.379 l -37.01,53.047 h -122.13 l 99.93,170.285 51.83,1.234 -75.26,-123.383 h 177.66 l 90.06,124.602 v 33.32 l -35.75,72.813"
         style="fill:#4d2f90;fill-opacity:1;fill-rule:nonzero;stroke:none"
         id="path76" /><path
         d="M 105.48,684.336 498.766,119.863 h 156.996 l -367.157,564.7 -183.125,-0.227"
         style="fill:#473f91;fill-opacity:1;fill-rule:nonzero;stroke:none"
         id="path78" /><path
         d="M 105.48,684.336 498.766,119.863 h 156.996 l -367.157,564.7 z"
         style="fill:none;stroke:#231f20;stroke-width:10;stroke-linecap:butt;stroke-linejoin:miter;stroke-miterlimit:4;stroke-dasharray:none;stroke-opacity:1"
         id="path80" /><path
         d="M 356.559,684.965 697.102,119.863 H 852.559 L 737.816,337.012 938.926,121.094 H 1049.97 L 803.203,683.707 613.199,684.965 734.117,430.773 512.027,684.965 H 356.559"
         style="fill:#473f91;fill-opacity:1;fill-rule:nonzero;stroke:none"
         id="path82" /><path
         d="M 356.559,684.965 697.102,119.863 H 852.559 L 737.816,337.012 938.926,121.094 H 1049.97 L 803.203,683.707 613.199,684.965 734.117,430.773 512.027,684.965 Z"
         style="fill:none;stroke:#231f20;stroke-width:10;stroke-linecap:butt;stroke-linejoin:miter;stroke-miterlimit:4;stroke-dasharray:none;stroke-opacity:1"
         id="path84" /><path
         d="M 840.219,683.707 1154.85,121.094 h 260.34 l -51.81,563.871 H 1154.85 L 1236.29,269.16 1031.46,683.707 H 840.219"
         style="fill:#473f91;fill-opacity:1;fill-rule:nonzero;stroke:none"
         id="path86" /><path
         d="M 840.219,683.707 1154.85,121.094 h 260.34 l -51.81,563.871 h -208.53 l 81.44,-415.805 -204.83,414.547 z"
         style="fill:none;stroke:#231f20;stroke-width:10;stroke-linecap:butt;stroke-linejoin:miter;stroke-miterlimit:4;stroke-dasharray:none;stroke-opacity:1"
         id="path88" /><path
         d="m 1723.73,121.094 h 136.88 l -114.75,563.871 -283.78,-1.258 22.21,-562.613 h 149.67 l -1.01,79.179 h 69.44 z m -91.72,152.07 -2.53,197.703 53.26,-197.703 z"
         style="fill:#473f91;fill-opacity:1;fill-rule:nonzero;stroke:none"
         id="path90" /><path
         d="m 1723.73,121.094 h 136.88 l -114.75,563.871 -283.78,-1.258 22.21,-562.613 h 149.67 l -1.01,79.179 h 69.44 z m -91.72,152.07 -2.53,197.703 53.26,-197.703 z"
         style="fill:none;stroke:#231f20;stroke-width:10;stroke-linecap:butt;stroke-linejoin:miter;stroke-miterlimit:4;stroke-dasharray:none;stroke-opacity:1"
         id="path92" /><path
         d="m 2213.48,683.707 h -325.71 l 9.86,-562.613 H 2174 l 86.37,50.566 61.69,380.039 v 34.563 z m -112,-500.719 h -59.3 l 18.52,396.614 h 66.73 l -25.95,-396.614"
         style="fill:#473f91;fill-opacity:1;fill-rule:nonzero;stroke:none"
         id="path94" /><path
         d="m 2213.48,683.707 h -325.71 l 9.86,-562.613 H 2174 l 86.37,50.566 61.69,380.039 v 34.563 z m -112,-500.719 h -59.3 l 18.52,396.614 h 66.73 z"
         style="fill:none;stroke:#231f20;stroke-width:10;stroke-linecap:butt;stroke-linejoin:miter;stroke-miterlimit:4;stroke-dasharray:none;stroke-opacity:1"
         id="path96" /><path
         d="m 2773.65,575.137 35.78,108.57 H 2404.72 L 2289.98,121.094 h 341.78 l 20.99,66.621 h -171.52 l 37.95,159.902 156.98,-3.222 33.32,91.328 h -169.4 l 33.68,141.89 199.89,-2.476"
         style="fill:#473f91;fill-opacity:1;fill-rule:nonzero;stroke:none"
         id="path98" /><path
         d="m 2773.65,575.137 35.78,108.57 H 2404.72 L 2289.98,121.094 h 341.78 l 20.99,66.621 h -171.52 l 37.95,159.902 156.98,-3.222 33.32,91.328 h -169.4 l 33.68,141.89 z"
         style="fill:none;stroke:#231f20;stroke-width:10;stroke-linecap:butt;stroke-linejoin:miter;stroke-miterlimit:4;stroke-dasharray:none;stroke-opacity:1"
         id="path100" /><path
         d="m 3207.97,683.707 -341.78,1.258 -209.75,-566.352 158.04,0.528 82.36,188.613 h 57.38 l -84.09,-188.399 156.46,0.508 97.47,181.348 -55.52,58.008 102.42,45.664 99.92,171.496 v 19.738 z M 2994.89,398.906 h -58.26 l 77.9,178.461 h 59.99 l -79.63,-178.461"
         style="fill:#473f91;fill-opacity:1;fill-rule:nonzero;stroke:none"
         id="path102" /><path
         d="m 3207.97,683.707 -341.78,1.258 -209.75,-566.352 158.04,0.528 82.36,188.613 h 57.38 l -84.09,-188.399 156.46,0.508 97.47,181.348 -55.52,58.008 102.42,45.664 99.92,171.496 v 19.738 z M 2994.89,398.906 h -58.26 l 77.9,178.461 h 59.99 z"
         style="fill:none;stroke:#231f20;stroke-width:10;stroke-linecap:butt;stroke-linejoin:miter;stroke-miterlimit:4;stroke-dasharray:none;stroke-opacity:1"
         id="path104" /><path
         d="m 3713.85,684.965 h -227.04 l -150.54,-86.367 -113.5,-185.082 v -44.434 l 45.64,-61.699 h 118.47 l -80.2,-111.035 h -29.63 l 33.32,44.433 v 24.688 h -157.92 l -49.35,-75.293 v -29.59 l 34.54,-39.492 197.41,-2.481 117.22,62.93 112.25,143.125 v 28.379 l -37.01,53.047 h -122.13 l 99.93,170.285 51.83,1.234 -75.26,-123.383 h 177.66 l 90.06,124.602 v 33.32 l -35.75,72.813"
         style="fill:#473f91;fill-opacity:1;fill-rule:nonzero;stroke:none"
         id="path106" /><path
         d="m 3713.85,684.965 h -227.04 l -150.54,-86.367 -113.5,-185.082 v -44.434 l 45.64,-61.699 h 118.47 l -80.2,-111.035 h -29.63 l 33.32,44.433 v 24.688 h -157.92 l -49.35,-75.293 v -29.59 l 34.54,-39.492 197.41,-2.481 117.22,62.93 112.25,143.125 v 28.379 l -37.01,53.047 h -122.13 l 99.93,170.285 51.83,1.234 -75.26,-123.383 h 177.66 l 90.06,124.602 v 33.32 z"
         style="fill:none;stroke:#231f20;stroke-width:10;stroke-linecap:butt;stroke-linejoin:miter;stroke-miterlimit:4;stroke-dasharray:none;stroke-opacity:1"
         id="path108" /><path
         d="M 9.57031,600.504 423.555,6.30859 H 588.824 L 202.34,600.746 9.57031,600.504"
         style="fill:#f7ed1c;fill-opacity:1;fill-rule:nonzero;stroke:none"
         id="path110" /><path
         d="M 9.57031,600.504 423.555,6.30859 H 588.824 L 202.34,600.746 Z"
         style="fill:none;stroke:#231f20;stroke-width:10;stroke-linecap:butt;stroke-linejoin:miter;stroke-miterlimit:4;stroke-dasharray:none;stroke-opacity:1"
         id="path112" /><path
         d="M 273.871,601.152 632.336,6.30859 H 795.98 L 675.195,234.902 886.895,7.61719 H 1003.79 L 744.027,599.855 544.02,601.152 671.301,333.613 437.52,601.152 H 273.871"
         style="fill:#f7ed1c;fill-opacity:1;fill-rule:nonzero;stroke:none"
         id="path114" /><path
         d="M 273.871,601.152 632.336,6.30859 H 795.98 L 675.195,234.902 886.895,7.61719 H 1003.79 L 744.027,599.855 544.02,601.152 671.301,333.613 437.52,601.152 Z"
         style="fill:none;stroke:#231f20;stroke-width:10;stroke-linecap:butt;stroke-linejoin:miter;stroke-miterlimit:4;stroke-dasharray:none;stroke-opacity:1"
         id="path116" /><path
         d="M 782.992,599.855 1114.18,7.61719 h 274.04 L 1333.67,601.152 H 1114.18 L 1199.9,163.457 984.301,599.855 H 782.992"
         style="fill:#f7ed1c;fill-opacity:1;fill-rule:nonzero;stroke:none"
         id="path118" /><path
         d="M 782.992,599.855 1114.18,7.61719 h 274.04 L 1333.67,601.152 H 1114.18 L 1199.9,163.457 984.301,599.855 Z"
         style="fill:none;stroke:#231f20;stroke-width:10;stroke-linecap:butt;stroke-linejoin:miter;stroke-miterlimit:4;stroke-dasharray:none;stroke-opacity:1"
         id="path120" /><path
         d="m 1713,7.61719 h 144.08 L 1736.29,601.152 1437.57,599.855 1460.95,7.61719 h 157.56 l -1.07,83.33981 h 73.1 z m -96.55,160.09781 -2.66,208.086 56.07,-208.086 z"
         style="fill:#f7ed1c;fill-opacity:1;fill-rule:nonzero;stroke:none"
         id="path122" /><path
         d="m 1713,7.61719 h 144.08 L 1736.29,601.152 1437.57,599.855 1460.95,7.61719 h 157.56 l -1.07,83.33981 h 73.1 z m -96.55,160.09781 -2.66,208.086 56.07,-208.086 z"
         style="fill:none;stroke:#231f20;stroke-width:10;stroke-linecap:butt;stroke-linejoin:miter;stroke-miterlimit:4;stroke-dasharray:none;stroke-opacity:1"
         id="path124" /><path
         d="m 2228.54,599.855 h -342.89 l 10.4,-592.23781 h 290.92 l 90.92,53.24221 64.93,400.0196 v 36.367 z M 2110.63,72.7539 h -62.43 l 19.51,417.5001 h 70.23 L 2110.63,72.7539"
         style="fill:#f7ed1c;fill-opacity:1;fill-rule:nonzero;stroke:none"
         id="path126" /><path
         d="m 2228.54,599.855 h -342.89 l 10.4,-592.23781 h 290.92 l 90.92,53.24221 64.93,400.0196 v 36.367 z M 2110.63,72.7539 h -62.43 l 19.51,417.5001 h 70.23 z"
         style="fill:none;stroke:#231f20;stroke-width:10;stroke-linecap:butt;stroke-linejoin:miter;stroke-miterlimit:4;stroke-dasharray:none;stroke-opacity:1"
         id="path128" /><path
         d="m 2818.18,485.566 37.66,114.289 h -426 L 2309.05,7.61719 h 359.77 l 22.08,70.13671 h -180.53 l 39.93,168.2811 165.27,-3.34 35.07,96.114 h -178.32 l 35.45,149.355 210.41,-2.598"
         style="fill:#f7ed1c;fill-opacity:1;fill-rule:nonzero;stroke:none"
         id="path130" /><path
         d="m 2818.18,485.566 37.66,114.289 h -426 L 2309.05,7.61719 h 359.77 l 22.08,70.13671 h -180.53 l 39.93,168.2811 165.27,-3.34 35.07,96.114 h -178.32 l 35.45,149.355 z"
         style="fill:none;stroke:#231f20;stroke-width:10;stroke-linecap:butt;stroke-linejoin:miter;stroke-miterlimit:4;stroke-dasharray:none;stroke-opacity:1"
         id="path132" /><path
         d="m 3275.34,599.855 -359.75,1.297 -220.8,-596.13247 166.36,0.54688 86.68,198.53559 h 60.41 l -88.49,-198.34028 164.68,0.54687 102.6,190.91841 -58.44,61.054 107.79,48.047 105.2,180.527 v 20.782 z M 3051.07,300.059 h -61.33 l 82,187.851 h 63.15 l -83.82,-187.851"
         style="fill:#f7ed1c;fill-opacity:1;fill-rule:nonzero;stroke:none"
         id="path134" /><path
         d="m 3275.34,599.855 -359.75,1.297 -220.8,-596.13247 166.36,0.54688 86.68,198.53559 h 60.41 l -88.49,-198.34028 164.68,0.54687 102.6,190.91841 -58.44,61.054 107.79,48.047 105.2,180.527 v 20.782 z M 3051.07,300.059 h -61.33 l 82,187.851 h 63.15 z"
         style="fill:none;stroke:#231f20;stroke-width:10;stroke-linecap:butt;stroke-linejoin:miter;stroke-miterlimit:4;stroke-dasharray:none;stroke-opacity:1"
         id="path136" /><path
         d="M 3807.84,601.152 H 3568.87 L 3410.42,510.234 3290.93,315.43 v -46.758 l 48.05,-64.942 h 124.69 L 3379.25,86.8359 h -31.18 l 35.07,46.7581 V 159.57 H 3216.91 L 3164.95,80.3516 V 49.1797 L 3201.32,7.61719 3409.12,5.01953 3532.5,71.25 3650.69,221.914 v 29.863 l -38.96,55.86 h -128.59 l 105.21,179.218 54.55,1.309 -79.23,-129.883 h 187.02 l 94.82,131.172 v 35.074 l -37.67,76.625"
         style="fill:#f7ed1c;fill-opacity:1;fill-rule:nonzero;stroke:none"
         id="path138" /><path
         d="M 3807.84,601.152 H 3568.87 L 3410.42,510.234 3290.93,315.43 v -46.758 l 48.05,-64.942 h 124.69 L 3379.25,86.8359 h -31.18 l 35.07,46.7581 V 159.57 H 3216.91 L 3164.95,80.3516 V 49.1797 L 3201.32,7.61719 3409.12,5.01953 3532.5,71.25 3650.69,221.914 v 29.863 l -38.96,55.86 h -128.59 l 105.21,179.218 54.55,1.309 -79.23,-129.883 h 187.02 l 94.82,131.172 v 35.074 z"
         style="fill:none;stroke:#231f20;stroke-width:10;stroke-linecap:butt;stroke-linejoin:miter;stroke-miterlimit:4;stroke-dasharray:none;stroke-opacity:1"
         id="path140" /><path
         d="M 1165.14,1651.47 H 942.105 l -75.503,-106.86 3.492,-36.02 67.371,-176.55 121.955,-120.81 h 120.81 l 31.36,-101.06 h -29.04 l -17.41,53.44 H 996.703 v -29.04 l 29.037,-65.02 98.73,-70.913 h 180.05 l 69.69,76.703 v 33.68 l -26.71,139.38 -101.06,92.93 h -126.6 l -51.12,162.62 h 36 l 26.72,-108.03 h 181.21 l -30.2,145.21 -117.31,110.34"
         style="fill:#3e6c7e;fill-opacity:1;fill-rule:nonzero;stroke:none"
         id="path142" /><path
         d="M 1165.14,1651.47 H 942.105 l -75.503,-106.86 3.492,-36.02 67.371,-176.55 121.955,-120.81 h 120.81 l 31.36,-101.06 h -29.04 l -17.41,53.44 H 996.703 v -29.04 l 29.037,-65.02 98.73,-70.913 h 180.05 l 69.69,76.703 v 33.68 l -26.71,139.38 -101.06,92.93 h -126.6 l -51.12,162.62 h 36 l 26.72,-108.03 h 181.21 l -30.2,145.21 z"
         style="fill:none;stroke:#231f20;stroke-width:10;stroke-linecap:butt;stroke-linejoin:miter;stroke-miterlimit:4;stroke-dasharray:none;stroke-opacity:1"
         id="path144" /><path
         d="m 1750.57,1545.76 -117.33,106.88 -313.61,-1.17 126.6,-651.65 h 148.68 l -24.66,169.85 116.43,-0.25 78.99,108.02 z m -199.15,-246.25 -29.69,204.44 h 44.15 l 29.8,-204.44 h -44.26"
         style="fill:#3e6c7e;fill-opacity:1;fill-rule:nonzero;stroke:none"
         id="path146" /><path
         d="m 1750.57,1545.76 -117.33,106.88 -313.61,-1.17 126.6,-651.65 h 148.68 l -24.66,169.85 116.43,-0.25 78.99,108.02 z m -199.15,-246.25 -29.69,204.44 h 44.15 l 29.8,-204.44 z"
         style="fill:none;stroke:#231f20;stroke-width:10;stroke-linecap:butt;stroke-linejoin:miter;stroke-miterlimit:4;stroke-dasharray:none;stroke-opacity:1"
         id="path148" /><path
         d="m 2006.6,996.934 h 141.36 l -56.21,654.156 h -252.49 l -60.83,-654.156 h 142.78 l 9.84,112.496 h 65.37 z m -66.8,212.326 23.41,267.4 24.19,-267.4 z"
         style="fill:#3e6c7e;fill-opacity:1;fill-rule:nonzero;stroke:none"
         id="path150" /><path
         d="m 2006.6,996.934 h 141.36 l -56.21,654.156 h -252.49 l -60.83,-654.156 h 142.78 l 9.84,112.496 h 65.37 z m -66.8,212.326 23.41,267.4 24.19,-267.4 z"
         style="fill:none;stroke:#231f20;stroke-width:10;stroke-linecap:butt;stroke-linejoin:miter;stroke-miterlimit:4;stroke-dasharray:none;stroke-opacity:1"
         id="path152" /><path
         d="m 2554.22,1651.09 h -205.43 l -120.51,-109.02 -37.86,-463.64 71.14,-81.496 177.89,1.175 98.71,79.181 43.56,169.85 h -165.41 l -23.91,-149.19 h -49.33 l 61.97,415.43 h 53.91 l -19.83,-123.94 h 179.12 l 32.38,126.24 v 34.42 l -96.4,100.99"
         style="fill:#3e6c7e;fill-opacity:1;fill-rule:nonzero;stroke:none"
         id="path154" /><path
         d="m 2554.22,1651.09 h -205.43 l -120.51,-109.02 -37.86,-463.64 71.14,-81.496 177.89,1.175 98.71,79.181 43.56,169.85 h -165.41 l -23.91,-149.19 h -49.33 l 61.97,415.43 h 53.91 l -19.83,-123.94 h 179.12 l 32.38,126.24 v 34.42 z"
         style="fill:none;stroke:#231f20;stroke-width:10;stroke-linecap:butt;stroke-linejoin:miter;stroke-miterlimit:4;stroke-dasharray:none;stroke-opacity:1"
         id="path156" /><path
         d="m 3061.25,1505.35 51.85,144.6 -379.86,1.14 -162.97,-654.156 h 308.71 l 37.03,103.326 H 2756.2 l 47.2,157.21 h 121.5 l 45.9,126.24 h -129.49 l 36.52,121.64 h 183.42"
         style="fill:#3e6c7e;fill-opacity:1;fill-rule:nonzero;stroke:none"
         id="path158" /><path
         d="m 3061.25,1505.35 51.85,144.6 -379.86,1.14 -162.97,-654.156 h 308.71 l 37.03,103.326 H 2756.2 l 47.2,157.21 h 121.5 l 45.9,126.24 h -129.49 l 36.52,121.64 z"
         style="fill:none;stroke:#231f20;stroke-width:10;stroke-linecap:butt;stroke-linejoin:miter;stroke-miterlimit:4;stroke-dasharray:none;stroke-opacity:1"
         id="path160" /><path
         d="M 1112.48,1555.53 H 875.227 l -80.325,-113.68 3.707,-38.31 71.672,-187.82 129.749,-128.53 h 128.52 l 33.36,-107.502 h -30.89 l -18.54,56.852 H 933.305 v -30.9 l 30.898,-69.179 105.027,-75.43 h 191.54 l 74.14,81.602 v 35.812 l -28.42,148.285 -107.51,98.87 h -134.69 l -54.37,172.99 h 38.31 l 28.41,-114.92 h 192.77 l -32.12,154.47 -124.81,117.39"
         style="fill:#473f91;fill-opacity:1;fill-rule:nonzero;stroke:none"
         id="path162" /><path
         d="M 1112.48,1555.53 H 875.227 l -80.325,-113.68 3.707,-38.31 71.672,-187.82 129.749,-128.53 h 128.52 l 33.36,-107.502 h -30.89 l -18.54,56.852 H 933.305 v -30.9 l 30.898,-69.179 105.027,-75.43 h 191.54 l 74.14,81.602 v 35.812 l -28.42,148.285 -107.51,98.87 h -134.69 l -54.37,172.99 h 38.31 l 28.41,-114.92 h 192.77 l -32.12,154.47 z"
         style="fill:none;stroke:#231f20;stroke-width:10;stroke-linecap:butt;stroke-linejoin:miter;stroke-miterlimit:4;stroke-dasharray:none;stroke-opacity:1"
         id="path164" /><path
         d="m 1735.29,1443.08 -124.82,113.69 -333.63,-1.24 134.69,-693.241 h 158.17 l -26.23,180.691 123.85,-0.27 84.03,114.92 z m -211.86,-261.97 -31.58,217.48 h 46.96 l 31.71,-217.48 h -47.09"
         style="fill:#473f91;fill-opacity:1;fill-rule:nonzero;stroke:none"
         id="path166" /><path
         d="m 1735.29,1443.08 -124.82,113.69 -333.63,-1.24 134.69,-693.241 h 158.17 l -26.23,180.691 123.85,-0.27 84.03,114.92 z m -211.86,-261.97 -31.58,217.48 h 46.96 l 31.71,-217.48 z"
         style="fill:none;stroke:#231f20;stroke-width:10;stroke-linecap:butt;stroke-linejoin:miter;stroke-miterlimit:4;stroke-dasharray:none;stroke-opacity:1"
         id="path168" /><path
         d="m 2007.68,859.223 h 150.37 l -59.8,695.917 h -268.61 l -64.7,-695.917 h 151.88 l 10.48,119.675 h 69.54 z m -71.09,225.877 24.92,284.46 25.73,-284.46 z"
         style="fill:#473f91;fill-opacity:1;fill-rule:nonzero;stroke:none"
         id="path170" /><path
         d="m 2007.68,859.223 h 150.37 l -59.8,695.917 h -268.61 l -64.7,-695.917 h 151.88 l 10.48,119.675 h 69.54 z m -71.09,225.877 24.92,284.46 25.73,-284.46 z"
         style="fill:none;stroke:#231f20;stroke-width:10;stroke-linecap:butt;stroke-linejoin:miter;stroke-miterlimit:4;stroke-dasharray:none;stroke-opacity:1"
         id="path172" /><path
         d="M 2590.23,1555.14 H 2371.7 l -128.19,-115.99 -40.29,-493.232 75.71,-86.695 189.23,1.242 105,84.238 46.34,180.687 h -175.98 l -25.43,-158.71 h -52.5 l 65.93,441.95 h 57.38 l -21.11,-131.85 h 190.55 l 34.45,134.29 v 36.62 l -102.56,107.45"
         style="fill:#473f91;fill-opacity:1;fill-rule:nonzero;stroke:none"
         id="path174" /><path
         d="M 2590.23,1555.14 H 2371.7 l -128.19,-115.99 -40.29,-493.232 75.71,-86.695 189.23,1.242 105,84.238 46.34,180.687 h -175.98 l -25.43,-158.71 h -52.5 l 65.93,441.95 h 57.38 l -21.11,-131.85 h 190.55 l 34.45,134.29 v 36.62 z"
         style="fill:none;stroke:#231f20;stroke-width:10;stroke-linecap:butt;stroke-linejoin:miter;stroke-miterlimit:4;stroke-dasharray:none;stroke-opacity:1"
         id="path176" /><path
         d="m 3129.64,1400.08 55.16,153.83 -404.11,1.23 -173.37,-695.917 h 328.41 l 39.4,109.914 h -170.02 l 50.22,167.243 h 129.25 l 48.83,134.3 h -137.75 l 38.86,129.4 h 195.12"
         style="fill:#473f91;fill-opacity:1;fill-rule:nonzero;stroke:none"
         id="path178" /><path
         d="m 3129.64,1400.08 55.16,153.83 -404.11,1.23 -173.37,-695.917 h 328.41 l 39.4,109.914 h -170.02 l 50.22,167.243 h 129.25 l 48.83,134.3 h -137.75 l 38.86,129.4 z"
         style="fill:none;stroke:#231f20;stroke-width:10;stroke-linecap:butt;stroke-linejoin:miter;stroke-miterlimit:4;stroke-dasharray:none;stroke-opacity:1"
         id="path180" /><path
         d="M 1056.48,1474.36 H 804.078 l -85.445,-120.94 3.933,-40.76 76.258,-199.81 138.024,-136.725 h 136.722 l 35.49,-114.363 h -32.87 l -19.71,60.472 H 865.859 v -32.863 l 32.868,-73.613 111.733,-80.199 h 203.77 l 78.87,86.769 v 38.117 l -30.23,157.745 -114.37,105.17 h -143.29 l -57.843,184.04 h 40.746 l 30.247,-122.25 h 205.07 l -34.19,164.32 -132.76,124.89"
         style="fill:#f7ed1c;fill-opacity:1;fill-rule:nonzero;stroke:none"
         id="path182" /><path
         d="M 1056.48,1474.36 H 804.078 l -85.445,-120.94 3.933,-40.76 76.258,-199.81 138.024,-136.725 h 136.722 l 35.49,-114.363 h -32.87 l -19.71,60.472 H 865.859 v -32.863 l 32.868,-73.613 111.733,-80.199 h 203.77 l 78.87,86.769 v 38.117 l -30.23,157.745 -114.37,105.17 h -143.29 l -57.843,184.04 h 40.746 l 30.247,-122.25 h 205.07 l -34.19,164.32 z"
         style="fill:none;stroke:#231f20;stroke-width:10;stroke-linecap:butt;stroke-linejoin:miter;stroke-miterlimit:4;stroke-dasharray:none;stroke-opacity:1"
         id="path184" /><path
         d="m 1719.03,1354.73 -132.78,120.95 -354.93,-1.32 143.29,-737.485 h 168.27 l -27.9,192.223 131.75,-0.297 89.39,122.259 z m -225.38,-278.69 -33.59,231.36 h 49.96 l 33.73,-231.36 h -50.1"
         style="fill:#f7ed1c;fill-opacity:1;fill-rule:nonzero;stroke:none"
         id="path186" /><path
         d="m 1719.03,1354.73 -132.78,120.95 -354.93,-1.32 143.29,-737.485 h 168.27 l -27.9,192.223 131.75,-0.297 89.39,122.259 z m -225.38,-278.69 -33.59,231.36 h 49.96 l 33.73,-231.36 z"
         style="fill:none;stroke:#231f20;stroke-width:10;stroke-linecap:butt;stroke-linejoin:miter;stroke-miterlimit:4;stroke-dasharray:none;stroke-opacity:1"
         id="path188" /><path
         d="m 2008.81,733.629 h 159.98 l -63.64,740.301 h -285.74 l -68.83,-740.301 h 161.58 l 11.14,127.277 h 73.99 z m -75.63,240.273 26.5,302.618 27.4,-302.618 z"
         style="fill:#f7ed1c;fill-opacity:1;fill-rule:nonzero;stroke:none"
         id="path190" /><path
         d="m 2008.81,733.629 h 159.98 l -63.64,740.301 h -285.74 l -68.83,-740.301 h 161.58 l 11.14,127.277 h 73.99 z m -75.63,240.273 26.5,302.618 27.4,-302.618 z"
         style="fill:none;stroke:#231f20;stroke-width:10;stroke-linecap:butt;stroke-linejoin:miter;stroke-miterlimit:4;stroke-dasharray:none;stroke-opacity:1"
         id="path192" /><path
         d="m 2628.55,1473.93 h -232.48 l -136.36,-123.38 -42.87,-524.71 80.52,-92.211 201.31,1.297 111.7,89.617 49.32,192.217 h -187.21 l -27.05,-168.838 h -55.85 l 70.13,470.148 h 61.05 l -22.47,-140.26 H 2701 l 36.66,142.87 v 38.96 l -109.11,114.29"
         style="fill:#f7ed1c;fill-opacity:1;fill-rule:nonzero;stroke:none"
         id="path194" /><path
         d="m 2628.55,1473.93 h -232.48 l -136.36,-123.38 -42.87,-524.71 80.52,-92.211 201.31,1.297 111.7,89.617 49.32,192.217 h -187.21 l -27.05,-168.838 h -55.85 l 70.13,470.148 h 61.05 l -22.47,-140.26 H 2701 l 36.66,142.87 v 38.96 z"
         style="fill:none;stroke:#231f20;stroke-width:10;stroke-linecap:butt;stroke-linejoin:miter;stroke-miterlimit:4;stroke-dasharray:none;stroke-opacity:1"
         id="path196" /><path
         d="m 3202.39,1308.99 58.66,163.64 -429.89,1.3 -184.42,-740.301 h 349.37 l 41.91,116.891 h -180.88 l 53.43,177.93 h 137.49 l 51.95,142.87 h -146.54 l 41.33,137.67 h 207.59"
         style="fill:#f7ed1c;fill-opacity:1;fill-rule:nonzero;stroke:none"
         id="path198" /><path
         d="m 3202.39,1308.99 58.66,163.64 -429.89,1.3 -184.42,-740.301 h 349.37 l 41.91,116.891 h -180.88 l 53.43,177.93 h 137.49 l 51.95,142.87 h -146.54 l 41.33,137.67 z"
         style="fill:none;stroke:#231f20;stroke-width:10;stroke-linecap:butt;stroke-linejoin:miter;stroke-miterlimit:4;stroke-dasharray:none;stroke-opacity:1"
         id="path200" /></g></g></svg>
